<svg xmlns="http://www.w3.org/2000/svg" width="1830" height="503" viewBox="0 0 1830 503" fill="none">
<path d="M508.687 257.582L487.739 280.141V336H447.456V140.492H487.739V229.115L505.464 204.811L555.281 140.492H604.829L535.408 227.37L606.843 336H558.906L508.687 257.582ZM698.152 295.851C698.152 291.107 695.78 287.392 691.035 284.706C686.38 281.931 678.861 279.469 668.477 277.321C633.923 270.07 616.646 255.389 616.646 233.278C616.646 220.387 621.972 209.645 632.625 201.051C643.367 192.368 657.376 188.026 674.653 188.026C693.094 188.026 707.82 192.368 718.831 201.051C729.931 209.735 735.481 221.014 735.481 234.889H696.675C696.675 229.339 694.884 224.774 691.304 221.193C687.723 217.523 682.128 215.688 674.519 215.688C667.984 215.688 662.926 217.165 659.346 220.119C655.765 223.073 653.975 226.833 653.975 231.398C653.975 235.695 655.989 239.186 660.017 241.872C664.135 244.468 671.028 246.75 680.696 248.72C690.364 250.6 698.51 252.748 705.134 255.165C725.634 262.685 735.884 275.709 735.884 294.24C735.884 307.488 730.199 318.231 718.831 326.466C707.462 334.612 692.781 338.686 674.788 338.686C662.613 338.686 651.781 336.537 642.292 332.24C632.893 327.854 625.508 321.901 620.137 314.381C614.766 306.772 612.08 298.581 612.08 289.809H648.872C649.23 296.701 651.781 301.983 656.526 305.653C661.27 309.324 667.626 311.159 675.593 311.159C683.023 311.159 688.618 309.771 692.378 306.996C696.227 304.132 698.152 300.417 698.152 295.851ZM881.172 256.105H803.828V336H763.545V140.492H890.84V173.122H803.828V223.61H881.172V256.105ZM1084.06 284.706C1084.06 277.097 1081.38 271.278 1076.01 267.25C1070.64 263.132 1060.97 258.835 1047 254.359C1033.04 249.794 1021.98 245.318 1013.84 240.932C991.637 228.936 980.537 212.778 980.537 192.458C980.537 181.894 983.491 172.495 989.399 164.259C995.397 155.934 1003.95 149.444 1015.05 144.789C1026.24 140.134 1038.77 137.807 1052.64 137.807C1066.61 137.807 1079.05 140.358 1089.97 145.46C1100.89 150.473 1109.35 157.59 1115.35 166.811C1121.44 176.031 1124.48 186.505 1124.48 198.231H1084.2C1084.2 189.28 1081.38 182.342 1075.74 177.418C1070.1 172.405 1062.18 169.899 1051.97 169.899C1042.13 169.899 1034.47 172.003 1029.01 176.21C1023.55 180.328 1020.82 185.788 1020.82 192.592C1020.82 198.948 1024 204.274 1030.35 208.571C1036.8 212.868 1046.24 216.896 1058.69 220.656C1081.6 227.549 1098.3 236.098 1108.77 246.303C1119.25 256.508 1124.48 269.219 1124.48 284.438C1124.48 301.356 1118.08 314.65 1105.28 324.318C1092.48 333.896 1075.25 338.686 1053.58 338.686C1038.54 338.686 1024.85 335.955 1012.5 330.495C1000.14 324.944 990.697 317.38 984.163 307.802C977.717 298.223 974.495 287.123 974.495 274.501H1014.91C1014.91 296.075 1027.8 306.862 1053.58 306.862C1063.16 306.862 1070.64 304.937 1076.01 301.088C1081.38 297.149 1084.06 291.688 1084.06 284.706ZM1275.68 283.229L1294.75 190.712H1332.21L1295.15 336H1262.65L1235.13 244.557L1207.6 336H1175.24L1138.18 190.712H1175.64L1194.58 283.095L1221.16 190.712H1249.23L1275.68 283.229ZM1435.74 336C1433.95 332.509 1432.65 328.167 1431.84 322.975C1422.44 333.449 1410.22 338.686 1395.19 338.686C1380.95 338.686 1369.14 334.568 1359.74 326.332C1350.43 318.096 1345.77 307.712 1345.77 295.18C1345.77 279.783 1351.46 267.966 1362.82 259.73C1374.28 251.495 1390.8 247.332 1412.37 247.243H1430.23V238.917C1430.23 232.204 1428.49 226.833 1425 222.804C1421.59 218.776 1416.18 216.762 1408.75 216.762C1402.21 216.762 1397.07 218.328 1393.31 221.461C1389.64 224.595 1387.8 228.891 1387.8 234.352H1348.99C1348.99 225.937 1351.59 218.149 1356.78 210.988C1361.97 203.826 1369.31 198.231 1378.8 194.203C1388.29 190.085 1398.95 188.026 1410.76 188.026C1428.67 188.026 1442.85 192.547 1453.33 201.588C1463.89 210.54 1469.17 223.162 1469.17 239.455V302.431C1469.26 316.216 1471.19 326.645 1474.95 333.717V336H1435.74ZM1403.65 309.01C1409.37 309.01 1414.66 307.757 1419.49 305.25C1424.32 302.654 1427.9 299.208 1430.23 294.911V269.936H1415.73C1396.3 269.936 1385.97 276.649 1384.71 290.077L1384.58 292.36C1384.58 297.194 1386.28 301.177 1389.68 304.311C1393.08 307.444 1397.74 309.01 1403.65 309.01ZM1629.77 264.699C1629.77 287.078 1624.67 305.027 1614.46 318.544C1604.34 331.972 1590.65 338.686 1573.37 338.686C1558.69 338.686 1546.83 333.583 1537.79 323.378V391.859H1498.98V190.712H1534.97L1536.31 204.945C1545.71 193.666 1557.97 188.026 1573.1 188.026C1591.01 188.026 1604.93 194.651 1614.86 207.899C1624.8 221.148 1629.77 239.41 1629.77 262.685V264.699ZM1590.96 261.879C1590.96 248.362 1588.54 237.933 1583.71 230.592C1578.97 223.252 1572.03 219.582 1562.9 219.582C1550.72 219.582 1542.35 224.236 1537.79 233.546V293.031C1542.53 302.61 1550.99 307.399 1563.17 307.399C1581.7 307.399 1590.96 292.226 1590.96 261.879Z" fill="#08C05E"/>
<circle cx="204" cy="240" r="180" fill="#08C05E"/>
<path d="M185.694 118.25C187.751 119.278 191.042 122.158 193.099 124.627C199.785 132.752 199.888 133.678 199.888 176.364C199.888 200.021 200.299 214.935 200.916 215.347C203.076 216.684 208.219 212.261 223.031 196.73C258.722 158.981 257.591 159.804 267.774 160.524C272.299 160.832 274.665 161.655 277.442 163.815C284.951 169.472 287.728 180.375 283.716 188.09C282.071 191.381 254.505 223.884 244.939 233.964L240.928 238.181L247.408 247.85C268.288 278.399 285.979 305.347 287.522 308.844C291.534 317.587 288.139 330.547 280.425 335.587C271.065 341.759 257.694 340.627 250.596 332.913C249.362 331.679 244.528 325.096 239.796 318.513C235.065 311.827 225.705 298.559 218.916 288.993L206.676 271.713L203.282 274.387L199.888 277.061V297.53C199.888 320.879 199.271 323.964 193.408 330.65C179.728 346.181 156.894 342.581 148.974 323.553C147.636 320.261 147.431 308.124 147.431 227.69C147.431 126.067 147.122 131.621 153.911 124.524C157.922 120.307 163.065 117.118 167.385 115.987C171.911 114.855 181.168 115.987 185.694 118.25Z" fill="white"/>
</svg>